<?xml version="1.0" encoding="UTF-8"?>
<svg width="607px" height="142px" viewBox="0 0 607 142" version="1.1" xmlns="http://www.w3.org/2000/svg" xmlns:xlink="http://www.w3.org/1999/xlink">
    <!-- Generator: Sketch 57.1 (83088) - https://sketch.com -->
    <title>logo</title>
    <desc>Created with Sketch.</desc>
    <g id="logo" stroke="none" stroke-width="1" fill="none" fill-rule="evenodd">
        <path d="M104.609,12.574 C103.233,13.547 101.875,14.544 100.48,15.486 C97.721,17.352 94.962,19.215 91.822,20.421 C90.111,21.076 88.663,20.893 87.377,19.468 C86.246,18.214 85.002,17.059 83.794,15.875 C75.115,7.368 61.518,6.391 51.866,13.757 C47.321,17.226 43.614,21.632 39.559,25.643 C30.463,34.64 21.423,43.696 12.423,52.789 C9.53,55.712 6.27,58.331 4.055,61.86 C-2.473,72.263 -1.016,84.681 7.681,93.387 C15.602,101.318 23.49,109.285 31.456,117.171 C38.03,123.678 44.266,130.541 51.247,136.617 C55.353,140.191 60.351,141.854 65.832,141.998 C67.315,142.037 67.444,141.607 66.705,140.411 C64.204,136.365 61.765,132.281 59.303,128.21 C47.46,108.624 35.619,89.037 23.779,69.452 C22.675,67.626 21.588,65.791 20.458,63.903 C21.143,63.724 21.376,64.061 21.635,64.295 C28.424,70.414 35.201,76.546 41.995,82.657 C45.724,86.013 49.466,89.355 53.232,92.67 C54.536,93.816 54.731,93.725 55.313,92.056 C55.937,90.262 56.577,88.472 57.162,86.666 C60.205,77.265 64.502,68.412 68.947,59.624 C71.136,55.294 73.721,51.191 76.279,47.076 C77.697,44.797 79.27,42.613 80.757,40.381 C82.049,38.442 83.581,36.609 85.084,34.786 C87.515,31.839 89.581,28.591 92.225,25.796 C94.363,23.534 96.248,20.989 98.599,18.984 C100.853,17.061 102.458,14.569 104.878,12.856 C104.788,12.762 104.699,12.668 104.609,12.574" id="Fill-1" fill="#C53030"></path>
        <path d="M129.38,61.86 C127.165,58.331 123.905,55.712 121.012,52.789 C115.645,47.366 110.261,41.959 104.862,36.567 C104.708,36.059 104.749,35.522 105.001,34.912 C106.386,31.558 107.73,28.185 109.208,24.873 C110.236,22.57 111.571,20.38 112.615,18.117 C114.012,15.09 115.884,12.38 117.478,9.499 C119.044,6.667 120.927,4.004 122.089,0.839 C120.338,2.934 118.562,5.008 116.84,7.127 C110.54,14.877 104.839,22.989 99.727,31.448 C94.077,40.796 89.147,50.57 84.96,60.775 C81.491,69.221 78.568,77.83 76.255,86.616 C74.582,92.979 73.227,99.433 72.229,105.99 C70.8,115.388 70.359,124.829 70.46,134.297 C70.476,135.873 70.505,137.447 70.55,139.022 C70.563,139.497 70.66,139.966 70.72,140.438 C70.8,141.065 71.115,141.466 71.528,141.614 C72.101,141.513 72.665,141.391 73.225,141.252 C74.845,140.642 76.516,140.149 78.091,139.42 C79.179,138.85 80.223,138.178 81.221,137.407 C82.137,136.636 83.012,135.828 83.927,135.072 C84.509,134.546 85.088,134.015 85.661,133.479 C89.352,130.034 92.874,126.416 96.405,122.804 C96.997,122.309 97.579,121.795 98.019,121.156 C99.233,119.92 100.452,118.686 101.682,117.466 C102.226,117.019 102.701,116.515 103.156,115.999 C104.197,114.966 105.236,113.932 106.275,112.897 C106.971,112.292 107.674,111.611 108.288,110.894 C109.868,109.317 111.445,107.738 113.021,106.158 C113.689,105.558 114.312,104.918 114.9,104.275 C116.294,102.876 117.688,101.477 119.081,100.078 C119.789,99.419 120.484,98.746 121.132,98.021 C122.672,96.474 124.211,94.929 125.753,93.387 C126.216,92.923 126.65,92.445 127.071,91.961 C127.226,91.785 127.378,91.609 127.527,91.433 C127.636,91.302 127.744,91.172 127.849,91.039 C127.973,90.885 128.092,90.732 128.209,90.577 C128.292,90.469 128.373,90.361 128.454,90.253 C134.675,81.858 135.159,71.07 129.38,61.86" id="Clip-5"></path>
        <path d="M121.012,52.789 C115.645,47.366 110.261,41.959 104.862,36.567 C104.708,36.059 104.749,35.522 105.001,34.912 C106.386,31.558 107.73,28.185 109.208,24.873 C110.236,22.57 111.571,20.38 112.615,18.117 C114.012,15.09 115.884,12.38 117.478,9.499 C119.044,6.667 120.927,4.004 122.089,0.839 C120.338,2.934 118.562,5.008 116.84,7.127 C110.54,14.877 104.839,22.989 99.727,31.448 C94.077,40.796 89.147,50.57 84.96,60.775 C81.491,69.221 78.568,77.83 76.255,86.616 C74.582,92.979 73.227,99.433 72.229,105.99 C70.8,115.388 70.359,124.829 70.46,134.297 C70.476,135.873 70.505,137.447 70.55,139.022 C70.563,139.497 70.66,139.966 70.72,140.438 C70.8,141.065 71.115,141.466 71.528,141.614 C72.101,141.513 72.665,141.391 73.225,141.252 C74.845,140.642 76.516,140.149 78.091,139.42 C79.179,138.85 80.223,138.178 81.221,137.407 C82.137,136.636 83.012,135.828 83.927,135.072 C84.509,134.546 85.088,134.015 85.661,133.479 C89.352,130.034 92.874,126.416 96.405,122.804 C96.997,122.309 97.579,121.795 98.019,121.156 C99.233,119.92 100.452,118.686 101.682,117.466 C102.226,117.019 102.701,116.515 103.156,115.999 C104.197,114.966 105.236,113.932 106.275,112.897 C106.971,112.292 107.674,111.611 108.288,110.894 C109.868,109.317 111.445,107.738 113.021,106.158 C113.689,105.558 114.312,104.918 114.9,104.275 C116.294,102.876 117.688,101.477 119.081,100.078 C119.789,99.419 120.484,98.746 121.132,98.021 C122.672,96.474 124.211,94.929 125.753,93.387 C126.216,92.923 126.65,92.445 127.071,91.961 C127.226,91.785 127.378,91.609 127.527,91.433 C127.636,91.302 127.744,91.172 127.849,91.039 C127.973,90.885 128.092,90.732 128.209,90.577 C128.292,90.469 128.373,90.361 128.454,90.253 C134.675,81.858 135.159,71.07 129.38,61.86 C127.165,58.331 123.905,55.712 121.012,52.789 Z" id="Fill-4" fill="#FFFFFF"></path>
        <path d="M151.931,88.021 C151.704,89.884 152.156,90.9 154.471,90.9 L167.798,90.9 L167.629,97.508 C162.66,98.015 156.73,98.072 151.253,98.072 C145.775,98.072 142.442,94.799 143.29,89.091 L147.413,58.939 L156.053,58.939 L151.931,88.021" id="Clip-8"></path>
        <path d="M151.931,88.021 C151.704,89.884 152.156,90.9 154.471,90.9 L167.798,90.9 L167.629,97.508 C162.66,98.015 156.73,98.072 151.253,98.072 C145.775,98.072 142.442,94.799 143.29,89.091 L147.413,58.939 L156.053,58.939 L151.931,88.021" id="Fill-7" fill="#FFFFFF"></path>
        <path d="M187.622,65.713 C185.477,65.713 184.629,66.448 184.348,68.763 L183.557,74.636 L198.86,74.636 L198.069,80.736 L182.71,80.736 L181.636,88.246 C181.354,90.336 182.031,91.125 184.177,91.125 L198.577,91.125 L198.352,97.508 C193.383,98.072 186.944,98.072 181.466,98.072 C174.973,98.072 172.149,94.343 172.884,88.697 L175.989,66.448 C176.667,61.704 179.886,58.769 185.308,58.769 C191.519,58.769 198.126,58.825 203.264,59.39 L202.191,65.713 L187.622,65.713" id="Clip-11"></path>
        <path d="M187.622,65.713 C185.477,65.713 184.629,66.448 184.348,68.763 L183.557,74.636 L198.86,74.636 L198.069,80.736 L182.71,80.736 L181.636,88.246 C181.354,90.336 182.031,91.125 184.177,91.125 L198.577,91.125 L198.352,97.508 C193.383,98.072 186.944,98.072 181.466,98.072 C174.973,98.072 172.149,94.343 172.884,88.697 L175.989,66.448 C176.667,61.704 179.886,58.769 185.308,58.769 C191.519,58.769 198.126,58.825 203.264,59.39 L202.191,65.713 L187.622,65.713" id="Fill-10" fill="#FFFFFF"></path>
        <polyline id="Clip-14" points="225.91 65.941 221.393 97.902 212.752 97.902 217.27 65.941 205.692 65.941 206.652 58.939 238.446 58.939 237.486 65.941 225.91 65.941"></polyline>
        <polyline id="Fill-13" fill="#FFFFFF" points="225.91 65.941 221.393 97.902 212.752 97.902 217.27 65.941 205.692 65.941 206.652 58.939 238.446 58.939 237.486 65.941 225.91 65.941"></polyline>
        <path d="M268.208,59.784 L267.362,65.6 C263.974,65.487 259.456,65.431 255.276,65.431 C251.154,65.374 249.517,65.487 248.952,69.158 C248.557,71.814 249.233,72.377 252.059,73.451 L259.06,76.16 C265.216,78.59 266.515,81.92 265.78,87.738 C264.65,96.49 260.754,98.636 250.421,98.636 C247.71,98.636 242.627,98.353 237.036,97.113 L237.94,90.955 C245.112,91.125 248.387,91.24 250.081,91.24 C255.22,91.24 256.745,90.617 257.253,87.228 C257.593,84.576 256.858,84.011 254.43,83.107 L247.032,80.113 C241.158,77.685 239.69,73.959 240.368,68.651 C241.554,59.897 246.41,58.202 255.502,58.202 C259.512,58.202 264.143,58.598 268.208,59.784" id="Clip-17"></path>
        <path d="M268.208,59.784 L267.362,65.6 C263.974,65.487 259.456,65.431 255.276,65.431 C251.154,65.374 249.517,65.487 248.952,69.158 C248.557,71.814 249.233,72.377 252.059,73.451 L259.06,76.16 C265.216,78.59 266.515,81.92 265.78,87.738 C264.65,96.49 260.754,98.636 250.421,98.636 C247.71,98.636 242.627,98.353 237.036,97.113 L237.94,90.955 C245.112,91.125 248.387,91.24 250.081,91.24 C255.22,91.24 256.745,90.617 257.253,87.228 C257.593,84.576 256.858,84.011 254.43,83.107 L247.032,80.113 C241.158,77.685 239.69,73.959 240.368,68.651 C241.554,59.897 246.41,58.202 255.502,58.202 C259.512,58.202 264.143,58.598 268.208,59.784" id="Fill-16" fill="#FFFFFF"></path>
        <path d="M313.104,59.784 L312.257,65.6 C308.869,65.487 304.352,65.431 300.173,65.431 C296.051,65.374 294.413,65.487 293.848,69.158 C293.453,71.814 294.13,72.377 296.954,73.451 L303.956,76.16 C310.111,78.59 311.411,81.92 310.677,87.738 C309.547,96.49 305.649,98.636 295.316,98.636 C292.605,98.636 287.522,98.353 281.933,97.113 L282.836,90.955 C290.008,91.125 293.283,91.24 294.977,91.24 C300.116,91.24 301.641,90.617 302.148,87.228 C302.488,84.576 301.754,84.011 299.325,83.107 L291.928,80.113 C286.056,77.685 284.587,73.959 285.265,68.651 C286.45,59.897 291.306,58.202 300.397,58.202 C304.408,58.202 309.038,58.598 313.104,59.784" id="Clip-20"></path>
        <path d="M313.104,59.784 L312.257,65.6 C308.869,65.487 304.352,65.431 300.173,65.431 C296.051,65.374 294.413,65.487 293.848,69.158 C293.453,71.814 294.13,72.377 296.954,73.451 L303.956,76.16 C310.111,78.59 311.411,81.92 310.677,87.738 C309.547,96.49 305.649,98.636 295.316,98.636 C292.605,98.636 287.522,98.353 281.933,97.113 L282.836,90.955 C290.008,91.125 293.283,91.24 294.977,91.24 C300.116,91.24 301.641,90.617 302.148,87.228 C302.488,84.576 301.754,84.011 299.325,83.107 L291.928,80.113 C286.056,77.685 284.587,73.959 285.265,68.651 C286.45,59.897 291.306,58.202 300.397,58.202 C304.408,58.202 309.038,58.598 313.104,59.784" id="Fill-19" fill="#C53030"></path>
        <path d="M331.007,65.713 C328.861,65.713 328.014,66.448 327.73,68.763 L326.941,74.636 L342.245,74.636 L341.454,80.736 L326.094,80.736 L325.021,88.246 C324.738,90.336 325.416,91.125 327.562,91.125 L341.962,91.125 L341.736,97.508 C336.766,98.072 330.328,98.072 324.851,98.072 C318.356,98.072 315.533,94.343 316.268,88.697 L319.373,66.448 C320.051,61.704 323.271,58.769 328.691,58.769 C334.902,58.769 341.511,58.825 346.648,59.39 L345.576,65.713 L331.007,65.713" id="Clip-23"></path>
        <path d="M331.007,65.713 C328.861,65.713 328.014,66.448 327.73,68.763 L326.941,74.636 L342.245,74.636 L341.454,80.736 L326.094,80.736 L325.021,88.246 C324.738,90.336 325.416,91.125 327.562,91.125 L341.962,91.125 L341.736,97.508 C336.766,98.072 330.328,98.072 324.851,98.072 C318.356,98.072 315.533,94.343 316.268,88.697 L319.373,66.448 C320.051,61.704 323.271,58.769 328.691,58.769 C334.902,58.769 341.511,58.825 346.648,59.39 L345.576,65.713 L331.007,65.713" id="Fill-22" fill="#C53030"></path>
        <polyline id="Clip-26" points="369.296 65.941 364.778 97.902 356.138 97.902 360.655 65.941 349.078 65.941 350.038 58.939 381.832 58.939 380.872 65.941 369.296 65.941"></polyline>
        <polyline id="Fill-25" fill="#C53030" points="369.296 65.941 364.778 97.902 356.138 97.902 360.655 65.941 349.078 65.941 350.038 58.939 381.832 58.939 380.872 65.941 369.296 65.941"></polyline>
        <polyline id="Clip-29" points="402.841 65.941 398.323 97.902 389.683 97.902 394.201 65.941 382.624 65.941 383.584 58.939 415.378 58.939 414.418 65.941 402.841 65.941"></polyline>
        <polyline id="Fill-28" fill="#C53030" points="402.841 65.941 398.323 97.902 389.683 97.902 394.201 65.941 382.624 65.941 383.584 58.939 415.378 58.939 414.418 65.941 402.841 65.941"></polyline>
        <path d="M424.527,88.021 C424.301,89.884 424.753,90.9 427.067,90.9 L440.396,90.9 L440.226,97.508 C435.257,98.015 429.327,98.072 423.85,98.072 C418.372,98.072 415.04,94.799 415.887,89.091 L420.01,58.939 L428.649,58.939 L424.527,88.021" id="Clip-32"></path>
        <path d="M424.527,88.021 C424.301,89.884 424.753,90.9 427.067,90.9 L440.396,90.9 L440.226,97.508 C435.257,98.015 429.327,98.072 423.85,98.072 C418.372,98.072 415.04,94.799 415.887,89.091 L420.01,58.939 L428.649,58.939 L424.527,88.021" id="Fill-31" fill="#C53030"></path>
        <path d="M460.219,65.713 C458.073,65.713 457.226,66.448 456.944,68.763 L456.153,74.636 L471.457,74.636 L470.666,80.736 L455.306,80.736 L454.232,88.246 C453.95,90.336 454.628,91.125 456.773,91.125 L471.174,91.125 L470.948,97.508 C465.979,98.072 459.541,98.072 454.063,98.072 C447.569,98.072 444.746,94.343 445.48,88.697 L448.585,66.448 C449.264,61.704 452.482,58.769 457.904,58.769 C464.114,58.769 470.723,58.825 475.86,59.39 L474.788,65.713 L460.219,65.713" id="Clip-35"></path>
        <path d="M460.219,65.713 C458.073,65.713 457.226,66.448 456.944,68.763 L456.153,74.636 L471.457,74.636 L470.666,80.736 L455.306,80.736 L454.232,88.246 C453.95,90.336 454.628,91.125 456.773,91.125 L471.174,91.125 L470.948,97.508 C465.979,98.072 459.541,98.072 454.063,98.072 C447.569,98.072 444.746,94.343 445.48,88.697 L448.585,66.448 C449.264,61.704 452.482,58.769 457.904,58.769 C464.114,58.769 470.723,58.825 475.86,59.39 L474.788,65.713 L460.219,65.713" id="Fill-34" fill="#C53030"></path>
        <polyline id="Clip-38" points="509.463 65.941 504.945 97.902 496.305 97.902 500.822 65.941 489.245 65.941 490.206 58.939 522 58.939 521.04 65.941 509.463 65.941"></polyline>
        <polyline id="Fill-37" fill="#FFFFFF" points="509.463 65.941 504.945 97.902 496.305 97.902 500.822 65.941 489.245 65.941 490.206 58.939 522 58.939 521.04 65.941 509.463 65.941"></polyline>
        <polyline id="Clip-41" points="552.101 97.902 543.517 97.902 545.945 80.566 532.392 80.566 529.964 97.902 521.324 97.902 526.802 58.939 535.44 58.939 533.352 73.845 546.905 73.845 548.994 58.939 557.578 58.939 552.101 97.902"></polyline>
        <polyline id="Fill-40" fill="#FFFFFF" points="552.101 97.902 543.517 97.902 545.945 80.566 532.392 80.566 529.964 97.902 521.324 97.902 526.802 58.939 535.44 58.939 533.352 73.845 546.905 73.845 548.994 58.939 557.578 58.939 552.101 97.902"></polyline>
        <polyline id="Clip-44" points="559.951 97.902 565.429 58.939 574.068 58.939 568.591 97.902 559.951 97.902"></polyline>
        <polyline id="Fill-43" fill="#FFFFFF" points="559.951 97.902 565.429 58.939 574.068 58.939 568.591 97.902 559.951 97.902"></polyline>
        <path d="M606.879,59.784 L606.033,65.6 C602.645,65.487 598.127,65.431 593.947,65.431 C589.825,65.374 588.188,65.487 587.622,69.158 C587.228,71.814 587.904,72.377 590.729,73.451 L597.73,76.16 C603.886,78.59 605.186,81.92 604.451,87.738 C603.321,96.49 599.425,98.636 589.091,98.636 C586.381,98.636 581.298,98.353 575.708,97.113 L576.611,90.955 C583.783,91.125 587.058,91.24 588.752,91.24 C593.891,91.24 595.416,90.617 595.924,87.228 C596.263,84.576 595.528,84.011 593.101,83.107 L585.703,80.113 C579.829,77.685 578.361,73.959 579.04,68.651 C580.226,59.897 585.081,58.202 594.173,58.202 C598.183,58.202 602.813,58.598 606.879,59.784" id="Clip-47"></path>
        <path d="M606.879,59.784 L606.033,65.6 C602.645,65.487 598.127,65.431 593.947,65.431 C589.825,65.374 588.188,65.487 587.622,69.158 C587.228,71.814 587.904,72.377 590.729,73.451 L597.73,76.16 C603.886,78.59 605.186,81.92 604.451,87.738 C603.321,96.49 599.425,98.636 589.091,98.636 C586.381,98.636 581.298,98.353 575.708,97.113 L576.611,90.955 C583.783,91.125 587.058,91.24 588.752,91.24 C593.891,91.24 595.416,90.617 595.924,87.228 C596.263,84.576 595.528,84.011 593.101,83.107 L585.703,80.113 C579.829,77.685 578.361,73.959 579.04,68.651 C580.226,59.897 585.081,58.202 594.173,58.202 C598.183,58.202 602.813,58.598 606.879,59.784" id="Fill-46" fill="#FFFFFF"></path>
    </g>
</svg>