<?xml version="1.0" encoding="UTF-8"?>
<svg width="100px" height="100px" viewBox="0 0 100 100" version="1.1" xmlns="http://www.w3.org/2000/svg" xmlns:xlink="http://www.w3.org/1999/xlink">
    <!-- Generator: Sketch 57.1 (83088) - https://sketch.com -->
    <title>submit-button</title>
    <desc>Created with Sketch.</desc>
    <g id="submit-button" stroke="none" stroke-width="1" fill="none" fill-rule="evenodd">
        <path d="M54.9160062,96.7726743 L58.8150691,91.4716394 L64.5331654,94.728484 L67.2448774,88.7326287 L73.5151556,90.7294443 L74.9210017,84.3008162 L81.4694207,84.9503324 L81.5079587,78.3698935 L88.0483211,77.6437234 L86.7178668,71.1990703 L92.9643272,69.1289509 L90.3230278,63.101746 L96.0025861,59.7781515 L92.1658791,54.4318125 L97.0303113,50 L92.1658791,45.5681875 L96.0025861,40.2218485 L90.3230278,36.898254 L92.9643272,30.8710491 L86.7178668,28.8009297 L88.0483211,22.3562766 L81.5079587,21.6301065 L81.4694207,15.0496676 L74.9210017,15.6991838 L73.5151556,9.27055571 L67.2448774,11.2673713 L64.5331654,5.27151602 L58.8150691,8.52836056 L54.9160062,3.22732571 L50,7.60185947 L45.0839938,3.22732571 L41.1849309,8.52836056 L35.4668346,5.27151602 L32.7551226,11.2673713 L26.4848444,9.27055571 L25.0789983,15.6991838 L18.5305793,15.0496676 L18.4920413,21.6301065 L11.9516789,22.3562766 L13.2821332,28.8009297 L7.03567278,30.8710491 L9.67697217,36.898254 L3.99741388,40.2218485 L7.83412092,45.5681875 L2.96968875,50 L7.83412092,54.4318125 L3.99741388,59.7781515 L9.67697217,63.101746 L7.03567278,69.1289509 L13.2821332,71.1990703 L11.9516789,77.6437234 L18.4920413,78.3698935 L18.5305793,84.9503324 L25.0789983,84.3008162 L26.4848444,90.7294443 L32.7551226,88.7326287 L35.4668346,94.728484 L41.1849309,91.4716394 L45.0839938,96.7726743 L50,92.3981405 L54.9160062,96.7726743 Z" id="Button" stroke="#FFFFFF" stroke-width="4" fill="#F7B500"></path>
        <path d="M27.19,49.216 C26.2779954,49.216 25.5160031,49.0540016 24.904,48.73 C24.2919969,48.4059984 23.8300016,47.9050034 23.518,47.227 C23.2059984,46.5489966 23.0320002,45.6700054 22.996,44.59 L25.75,44.176 C25.7620001,44.8000031 25.8189995,45.3039981 25.921,45.688 C26.0230005,46.0720019 26.1669991,46.3479992 26.353,46.516 C26.5390009,46.6840008 26.7639987,46.768 27.028,46.768 C27.3640017,46.768 27.5829995,46.6540011 27.685,46.426 C27.7870005,46.1979989 27.838,45.9580013 27.838,45.706 C27.838,45.105997 27.6940014,44.5990021 27.406,44.185 C27.1179986,43.7709979 26.7280025,43.3540021 26.236,42.934 L24.976,41.836 C24.4239972,41.3679977 23.9590019,40.837003 23.581,40.243 C23.2029981,39.648997 23.014,38.9140044 23.014,38.038 C23.014,36.8019938 23.3799963,35.8570033 24.112,35.203 C24.8440037,34.5489967 25.8399937,34.222 27.1,34.222 C27.8800039,34.222 28.5069976,34.3539987 28.981,34.618 C29.4550024,34.8820013 29.8149988,35.2269979 30.061,35.653 C30.3070012,36.0790021 30.4749996,36.5289976 30.565,37.003 C30.6550005,37.4770024 30.7059999,37.9299978 30.718,38.362 L27.946,38.704 C27.9339999,38.2719978 27.9070002,37.8970016 27.865,37.579 C27.8229998,37.2609984 27.7360007,37.0150009 27.604,36.841 C27.4719993,36.6669991 27.2680014,36.58 26.992,36.58 C26.6919985,36.58 26.4730007,36.7059987 26.335,36.958 C26.1969993,37.2100013 26.128,37.4619987 26.128,37.714 C26.128,38.2540027 26.2569987,38.6949983 26.515,39.037 C26.7730013,39.3790017 27.1119979,39.7359981 27.532,40.108 L28.738,41.17 C29.3740032,41.7100027 29.9109978,42.3219966 30.349,43.006 C30.7870022,43.6900034 31.006,44.535995 31.006,45.544 C31.006,46.2280034 30.8500016,46.8489972 30.538,47.407 C30.2259984,47.9650028 29.7850029,48.4059984 29.215,48.73 C28.6449972,49.0540016 27.9700039,49.216 27.19,49.216 Z M36.784,49.216 C35.6679944,49.216 34.7950031,49.0330018 34.165,48.667 C33.5349968,48.3009982 33.0940013,47.7670035 32.842,47.065 C32.5899987,46.3629965 32.464,45.5020051 32.464,44.482 L32.464,34.42 L35.65,34.42 L35.65,44.968 C35.65,45.2680015 35.6739998,45.5679985 35.722,45.868 C35.7700002,46.1680015 35.8749992,46.413999 36.037,46.606 C36.1990008,46.798001 36.4479983,46.894 36.784,46.894 C37.1320017,46.894 37.3839992,46.798001 37.54,46.606 C37.6960008,46.413999 37.7949998,46.1680015 37.837,45.868 C37.8790002,45.5679985 37.9,45.2680015 37.9,44.968 L37.9,34.42 L41.104,34.42 L41.104,44.482 C41.104,45.5020051 40.9750013,46.3629965 40.717,47.065 C40.4589987,47.7670035 40.0180031,48.3009982 39.394,48.667 C38.7699969,49.0330018 37.9000056,49.216 36.784,49.216 Z M43.156,49 L43.156,34.42 L46.954,34.42 C47.5780031,34.42 48.1689972,34.4679995 48.727,34.564 C49.2850028,34.6600005 49.7799978,34.8429986 50.212,35.113 C50.6440022,35.3830014 50.9829988,35.7669975 51.229,36.265 C51.4750012,36.7630025 51.598,37.42 51.598,38.236 C51.598,38.8240029 51.5110009,39.318998 51.337,39.721 C51.1629991,40.123002 50.9170016,40.4439988 50.599,40.684 C50.2809984,40.9240012 49.9000022,41.0859996 49.456,41.17 C50.0200028,41.2420004 50.4939981,41.4249985 50.878,41.719 C51.2620019,42.0130015 51.552999,42.4059975 51.751,42.898 C51.949001,43.3900025 52.048,43.9839965 52.048,44.68 C52.048,45.4360038 51.949001,46.0869973 51.751,46.633 C51.552999,47.1790027 51.2680019,47.6259983 50.896,47.974 C50.5239981,48.3220017 50.0650027,48.5799992 49.519,48.748 C48.9729973,48.9160008 48.3460035,49 47.638,49 L43.156,49 Z M46.378,46.75 L47.062,46.75 C47.7700035,46.75 48.2589987,46.5700018 48.529,46.21 C48.7990014,45.8499982 48.934,45.3220035 48.934,44.626 C48.934,44.0739972 48.8740006,43.6360016 48.754,43.312 C48.6339994,42.9879984 48.4360014,42.7510008 48.16,42.601 C47.8839986,42.4509992 47.5120023,42.376 47.044,42.376 L46.378,42.376 L46.378,46.75 Z M46.378,40.252 L47.008,40.252 C47.5000025,40.252 47.8719987,40.1770008 48.124,40.027 C48.3760013,39.8769992 48.5469996,39.6580014 48.637,39.37 C48.7270005,39.0819986 48.772,38.734002 48.772,38.326 C48.772,37.9419981 48.7030007,37.6210013 48.565,37.363 C48.4269993,37.1049987 48.2230014,36.9100007 47.953,36.778 C47.6829987,36.6459993 47.344002,36.58 46.936,36.58 L46.378,36.58 L46.378,40.252 Z M53.686,49 L53.938,34.42 L57.394,34.42 L58.996,42.898 L60.724,34.42 L64.054,34.42 L64.306,49 L62.02,49 L61.75,39.298 L60.058,49 L58.024,49 L56.224,39.226 L56.008,49 L53.686,49 Z M66.43,49 L66.43,34.42 L69.652,34.42 L69.652,49 L66.43,49 Z M73.144,49 L73.144,36.814 L70.948,36.814 L70.948,34.42 L78.562,34.42 L78.562,36.814 L76.384,36.814 L76.384,49 L73.144,49 Z M28.387,67 L28.387,61.042 L25.615,52.42 L28.657,52.42 L30.043,57.028 L31.285,52.42 L34.201,52.42 L31.483,61.042 L31.483,67 L28.387,67 Z M39.601,67.216 C38.5089945,67.216 37.6450032,67.0240019 37.009,66.64 C36.3729968,66.2559981 35.9170014,65.7040036 35.641,64.984 C35.3649986,64.2639964 35.227,63.406005 35.227,62.41 L35.227,56.992 C35.227,55.983995 35.3649986,55.1260035 35.641,54.418 C35.9170014,53.7099965 36.3729968,53.1670019 37.009,52.789 C37.6450032,52.4109981 38.5089945,52.222 39.601,52.222 C40.7050055,52.222 41.5779968,52.4109981 42.22,52.789 C42.8620032,53.1670019 43.3209986,53.7099965 43.597,54.418 C43.8730014,55.1260035 44.011,55.983995 44.011,56.992 L44.011,62.41 C44.011,63.406005 43.8730014,64.2639964 43.597,64.984 C43.3209986,65.7040036 42.8620032,66.2559981 42.22,66.64 C41.5779968,67.0240019 40.7050055,67.216 39.601,67.216 Z M39.601,64.93 C39.9370017,64.93 40.1829992,64.8460008 40.339,64.678 C40.4950008,64.5099992 40.5969998,64.2940013 40.645,64.03 C40.6930002,63.7659987 40.717,63.4960014 40.717,63.22 L40.717,56.2 C40.717,55.9119986 40.6930002,55.6390013 40.645,55.381 C40.5969998,55.1229987 40.4950008,54.9100008 40.339,54.742 C40.1829992,54.5739992 39.9370017,54.49 39.601,54.49 C39.2889984,54.49 39.0550008,54.5739992 38.899,54.742 C38.7429992,54.9100008 38.6410002,55.1229987 38.593,55.381 C38.5449998,55.6390013 38.521,55.9119986 38.521,56.2 L38.521,63.22 C38.521,63.4960014 38.5419998,63.7659987 38.584,64.03 C38.6260002,64.2940013 38.7219992,64.5099992 38.872,64.678 C39.0220007,64.8460008 39.2649983,64.93 39.601,64.93 Z M50.185,67.216 C49.0689944,67.216 48.1960032,67.0330018 47.566,66.667 C46.9359969,66.3009982 46.4950013,65.7670035 46.243,65.065 C45.9909987,64.3629965 45.865,63.5020051 45.865,62.482 L45.865,52.42 L49.051,52.42 L49.051,62.968 C49.051,63.2680015 49.0749998,63.5679985 49.123,63.868 C49.1710002,64.1680015 49.2759992,64.413999 49.438,64.606 C49.6000008,64.798001 49.8489983,64.894 50.185,64.894 C50.5330017,64.894 50.7849992,64.798001 50.941,64.606 C51.0970008,64.413999 51.1959998,64.1680015 51.238,63.868 C51.2800002,63.5679985 51.301,63.2680015 51.301,62.968 L51.301,52.42 L54.505,52.42 L54.505,62.482 C54.505,63.5020051 54.3760013,64.3629965 54.118,65.065 C53.8599987,65.7670035 53.4190031,66.3009982 52.795,66.667 C52.1709969,67.0330018 51.3010056,67.216 50.185,67.216 Z M56.557,67 L56.557,52.42 L60.571,52.42 C61.5550049,52.42 62.4069964,52.5279989 63.127,52.744 C63.8470036,52.9600011 64.407998,53.3469972 64.81,53.905 C65.212002,54.4630028 65.413,55.2519949 65.413,56.272 C65.413,56.872003 65.3650005,57.4059977 65.269,57.874 C65.1729995,58.3420023 64.9960013,58.7469983 64.738,59.089 C64.4799987,59.4310017 64.1110024,59.7159989 63.631,59.944 L65.629,67 L62.299,67 L60.697,60.466 L59.779,60.466 L59.779,67 L56.557,67 Z M59.779,58.612 L60.679,58.612 C61.1350023,58.612 61.4889987,58.5310008 61.741,58.369 C61.9930013,58.2069992 62.1699995,57.9730015 62.272,57.667 C62.3740005,57.3609985 62.425,56.9920022 62.425,56.56 C62.425,55.9359969 62.3110011,55.4500017 62.083,55.102 C61.8549989,54.7539983 61.4350031,54.58 60.823,54.58 L59.779,54.58 L59.779,58.612 Z M71.227,67.216 C70.3149954,67.216 69.5530031,67.0540016 68.941,66.73 C68.3289969,66.4059984 67.8670016,65.9050034 67.555,65.227 C67.2429984,64.5489966 67.0690002,63.6700054 67.033,62.59 L69.787,62.176 C69.7990001,62.8000031 69.8559995,63.3039981 69.958,63.688 C70.0600005,64.0720019 70.2039991,64.3479992 70.39,64.516 C70.5760009,64.6840008 70.8009987,64.768 71.065,64.768 C71.4010017,64.768 71.6199995,64.6540011 71.722,64.426 C71.8240005,64.1979989 71.875,63.9580013 71.875,63.706 C71.875,63.105997 71.7310014,62.5990021 71.443,62.185 C71.1549986,61.7709979 70.7650025,61.3540021 70.273,60.934 L69.013,59.836 C68.4609972,59.3679977 67.9960019,58.837003 67.618,58.243 C67.2399981,57.648997 67.051,56.9140044 67.051,56.038 C67.051,54.8019938 67.4169963,53.8570033 68.149,53.203 C68.8810037,52.5489967 69.8769937,52.222 71.137,52.222 C71.9170039,52.222 72.5439976,52.3539987 73.018,52.618 C73.4920024,52.8820013 73.8519988,53.2269979 74.098,53.653 C74.3440012,54.0790021 74.5119995,54.5289976 74.602,55.003 C74.6920004,55.4770024 74.7429999,55.9299978 74.755,56.362 L71.983,56.704 C71.9709999,56.2719978 71.9440002,55.8970016 71.902,55.579 C71.8599998,55.2609984 71.7730007,55.0150009 71.641,54.841 C71.5089993,54.6669991 71.3050014,54.58 71.029,54.58 C70.7289985,54.58 70.5100007,54.7059987 70.372,54.958 C70.2339993,55.2100013 70.165,55.4619987 70.165,55.714 C70.165,56.2540027 70.2939987,56.6949983 70.552,57.037 C70.8100013,57.3790017 71.1489979,57.7359981 71.569,58.108 L72.775,59.17 C73.4110032,59.7100027 73.9479978,60.3219966 74.386,61.006 C74.8240022,61.6900034 75.043,62.535995 75.043,63.544 C75.043,64.2280034 74.8870016,64.8489972 74.575,65.407 C74.2629984,65.9650028 73.8220028,66.4059984 73.252,66.73 C72.6819972,67.0540016 72.0070039,67.216 71.227,67.216 Z" id="SUBMITYOURS" fill="#000000" fill-rule="nonzero"></path>
    </g>
</svg>